<?xml version="1.0" standalone="no"?>
<!DOCTYPE svg PUBLIC "-//W3C//DTD SVG 20010904//EN"
 "http://www.w3.org/TR/2001/REC-SVG-20010904/DTD/svg10.dtd">
<svg version="1.0" xmlns="http://www.w3.org/2000/svg"
 width="99.000000pt" height="99.000000pt" viewBox="0 0 99.000000 99.000000"
 preserveAspectRatio="xMidYMid meet">
<metadata>
Created by potrace 1.14, written by Peter Selinger 2001-2017
</metadata>
<g transform="translate(0.000000,99.000000) scale(0.100000,-0.100000)"
fill="#000000" stroke="none">
<path d="M836 882 c-103 -260 -404 -567 -750 -764 -42 -24 -76 -47 -76 -52 0
-5 6 -4 13 1 6 6 59 29 117 53 147 59 374 177 470 245 239 168 338 355 275
518 -10 26 -20 47 -24 47 -3 0 -14 -21 -25 -48z"/>
<path d="M952 688 c-61 -195 -272 -358 -692 -533 -74 -30 -148 -62 -165 -69
l-29 -13 27 -5 c14 -3 24 -2 22 2 -3 4 30 13 73 20 42 8 86 15 97 17 11 2 67
15 125 28 424 101 586 240 573 490 -2 39 -4 78 -4 88 -1 30 -14 18 -27 -25z"/>
<path d="M944 339 c-83 -87 -262 -166 -486 -214 -93 -20 -95 -20 -193 -35
-144 -23 -144 -29 0 -25 187 6 252 12 365 36 170 35 269 99 325 210 15 28 25
53 22 55 -2 2 -17 -10 -33 -27z"/>
</g>
</svg>
